<?xml version="1.0" encoding="utf-8"?>
<!-- Generator: Adobe Illustrator 17.0.0, SVG Export Plug-In . SVG Version: 6.00 Build 0)  -->
<!DOCTYPE svg PUBLIC "-//W3C//DTD SVG 1.1//EN" "http://www.w3.org/Graphics/SVG/1.1/DTD/svg11.dtd">
<svg version="1.1" id="Layer_1" xmlns="http://www.w3.org/2000/svg" xmlns:xlink="http://www.w3.org/1999/xlink" x="0px" y="0px"
	 width="173.667px" height="173.709px" viewBox="0 0 173.667 173.709" enable-background="new 0 0 173.667 173.709"
	 xml:space="preserve">
<path fill="#C4C4C4" d="M86.404,171.104c-24.785-0.414-49.433-1.962-73.429-8.873c-11.067-3.187-10.316-3.514-11.466-14.64
	c-1.287-12.448,4.101-19.71,14.588-24.578c8.807-4.088,17.851-7.765,26.298-12.502c6.756-3.789,12.911-8.725,19.006-13.562
	c1.32-1.048,2.242-4.25,1.632-5.773c-1.998-4.985-4.174-10.12-7.401-14.342c-6.378-8.346-9.83-16.753-6.509-27.492
	c1.355-4.383,0.298-9.48,0.556-14.24c1.339-24.718,29.612-41.222,51.92-30.373c1.513,0.736,3.108,1.419,4.741,1.776
	c9.847,2.157,14.236,7.119,15.328,17.003c1.156,10.459,2.655,20.881,3.812,31.34c0.924,8.352-2.773,15.049-7.553,21.613
	c-3.236,4.445-5.57,9.641-7.667,14.763c-0.616,1.505,0.318,4.728,1.638,5.758c6.267,4.894,12.59,9.882,19.503,13.742
	c9.5,5.304,19.625,9.476,29.341,14.41c7.805,3.964,11.588,9.96,11.118,19.374c-0.737,14.77-0.183,14.839-14.458,18.591
	C134.13,169.217,110.339,170.802,86.404,171.104z"/>
</svg>
